# xmcd
#
# Track frame offsets:
# 150
# 12000
# 22821
# 35138
# 44922
# 53370
# 64119
# 77980
# 90663
# 101877
# 113073
# 127059
# 142645
# 156414
# 166542
# 179951
# 192734
# 204067
# 220598
# 234113
#
# Disc length: 3295 seconds
#
#
# Revision: 0
# Processed by: cddbd v1.5.2PL0 Copyright (c) Steve Scherf et al.
# Submitted via: FreeRIP 2.944 
#
DISCID=0c0cdd14
DTITLE=Marty Robbins - Marty Robbins - 80 Original Hits And Rarities Cd 2
DYEAR=2010
DGENRE=Country
TTITLE0=That's all right
TTITLE1=Time goes by
TTITLE2=Pretty mama
TTITLE3=Long tall Sally
TTITLE4=I'll know you're gone
TTITLE5=How long will it be
TTITLE6=Respectfully miss Brooks
TTITLE7=You don't owe me a thing
TTITLE8=Singing the blues
TTITLE9=I can't quit
TTITLE10=The little Rosewood Casket
TTITLE11=The dream of the miner's child
TTITLE12=The Same two lips
TTITLE13=Knee deep in the blues
TTITLE14=The letter edged in black
TTITLE15=Mister teardrop
TTITLE16=A white sport coat
TTITLE17=Island echoes
TTITLE18=Song of the Island
TTITLE19=My isle of golden dreams
EXTD=
EXTT0=
EXTT1=
EXTT2=
EXTT3=
EXTT4=
EXTT5=
EXTT6=
EXTT7=
EXTT8=
EXTT9=
EXTT10=
EXTT11=
EXTT12=
EXTT13=
EXTT14=
EXTT15=
EXTT16=
EXTT17=
EXTT18=
EXTT19=
PLAYORDER=
